# xmcd
#
# Track frame offsets:
# 150
# 13888
# 28385
# 43040
# 62236
# 88267
# 109073
# 143563
# 163732
# 187005
# 220843
# 251505
# 284211
# 304372
#
# Disc length: 4353 seconds
#
#
# Revision: 2
# Processed by: cddbd v1.5.2PL0 Copyright (c) Steve Scherf et al.
# Submitted via: FreeRIP 2.945 
#
DISCID=dd10ff0e
DTITLE=Special Dreams Vol. 4 - VOLUME 4
DYEAR=1900
DGENRE=R&B
TTITLE0=JERMAINE JACKSON - DADDY'S HOME
TTITLE1=DOM COSTA - ECHO LOVE
TTITLE2=BURT BACHARACH - AND DAY NOW
TTITLE3=SMOKEY ROBINSON - CRUISIN
TTITLE4=THE BAR KAYS - ANTICIPATION
TTITLE5=BILLY PAUL - MS JONES
TTITLE6=EBO - I D' RATHER BABY MY SELF
TTITLE7=DELEGATION - WELCOME TO MY WORLD
TTITLE8=FAT LARRY'S BAND - PEACEFUL YOURNEY
TTITLE9=RICHARD DIMPLES FILDS - IF IT AINT ONE THING... IT'S ANOTHER
TTITLE10=BARRY WHITE - JUST THE WAY YOU ARE
TTITLE11=LISA DANIELE - LET ME DOWN EASY
TTITLE12=THE DRAMATICS - BE MY GIRL
TTITLE13=JIMMY "BO" HORNE - CLOSE TO YOU
EXTD=
EXTT0=
EXTT1=
EXTT2=
EXTT3=
EXTT4=
EXTT5=
EXTT6=
EXTT7=
EXTT8=
EXTT9=
EXTT10=
EXTT11=
EXTT12=
EXTT13=
PLAYORDER=
